#N canvas 345 143 715 631 12;
#X declare -path tdh.satk;
#N canvas 102 101 450 300 box 1;
#X coords 0 0 1 1 631 321 2 0 0;
#X restore 9 59 pd box;
#N canvas 131 130 450 300 box 1;
#X coords 0 0 1 1 631 304 2 0 0;
#X restore 9 509 pd box;
#N canvas 160 159 450 300 box 1;
#X coords 0 0 1 1 631 39 2 0 0;
#X restore 9 391 pd box;
#X obj 9 9 cnv 15 631 41 empty empty SOUND\ ART\ TOOLKIT\ GUIDE 2 20 0 32 #cecece #373737 0;
#X obj 19 637 cnv 10 10 10 empty empty Controller\ Modules 0 6 0 14 #ffffff #373737 0;
#X obj 19 577 cnv 10 10 10 empty empty Algorithmic\ Composition\ Modules 0 6 0 14 #ffffff #373737 0;
#X obj 19 697 cnv 10 10 10 empty empty Mathematics\ and\ Number\ Handling\ Modules 0 6 0 14 #ffffff #373737 0;
#X obj 19 757 cnv 10 10 10 empty empty MIDI\ Generation\ and\ Processing\ Modules 0 6 0 14 #ffffff #373737 0;
#X obj 369 577 cnv 10 10 10 empty empty Event\ Sequencing\ Modules 0 6 0 14 #ffffff #373737 0;
#X obj 369 637 cnv 10 10 10 empty empty Signal\ Processing\ Modules 0 6 0 14 #ffffff #373737 0;
#X obj 369 697 cnv 10 10 10 empty empty Synthesizer\ and\ Synthesis\ Modules 0 6 0 14 #ffffff #373737 0;
#X obj 369 757 cnv 10 10 10 empty empty Utility\ and\ Tool\ Modules 0 6 0 14 #ffffff #373737 0;
#N canvas 0 22 450 300 links 0;
#X msg 339 99 browse https://github.com/thouldcroft/tdh.lib;
#X msg 629 99 browse https://github.com/thouldcroft/tdh.satk;
#X obj 185 186 pdcontrol;
#X obj 78 74 r \$0-tdhWeb;
#X obj 339 69 r \$0-tdhlibGit;
#X obj 629 69 r \$0-satkGit;
#X msg 79 109 browse https://travishouldcroft.com/;
#X connect 0 0 2 0;
#X connect 1 0 2 0;
#X connect 3 0 6 0;
#X connect 4 0 0 0;
#X connect 5 0 1 0;
#X connect 6 0 2 0;
#X restore 559 399 pd links;
#X obj 19 402 bng 16 250 50 0 \$0-tdhWeb \$0-tdhWeb-r travishouldcroft.com 24 8 0 12 #c6feff #000000 #000000;
#X obj 189 402 bng 16 250 50 0 \$0-tdhlibGit \$0-tdhlibGit-r TDH.LIB\ on\ Github 24 8 0 12 #c6feff #000000 #000000;
#X obj 339 402 bng 16 250 50 0 \$0-satkGit \$0-satkGit-r SOUND\ ART\ TOOLKIT\ on\ Github 24 8 0 12 #c6feff #000000 #000000;
#N canvas 160 159 450 300 box 1;
#X coords 0 0 1 1 631 59 2 0 0;
#X restore 759 349 pd box;
#X obj 19 449 cnv 10 10 10 empty empty More\ About\ the\ SATK 0 6 0 18 #ffffff #373737 0;
#X text 19 67 The SOUND ART TOOLKIT (SATK) is a library of Pure Data (Pd) modules developed by Travis Houldcroft. These modules are intended for efficient and unique creation of sonic art \, from abstract sound to music. While these modules can be useful for even a seasoned Pd programmer (I use them often in my own code) \, the biggest focus for the SATK was to provide an accessible way into programming in Pd. My hope is that for those of whom this is their first time working with sound in this manner \, this toolkit will spark an interest in exploring Pd as a whole., f 87;
#X text 19 166 The SATK is 100% graphically implemented \, so it doesn't require any Pd coding to use. In many ways it is more like a modular sound generator/synthesizer than Pd coding \, but all module parameters can be extended and controlled with Pd code \, allowing you to expand on your use of the modules and incorporate your own Pd algorithms into your use of the toolkit \, if interested., f 87;
#X text 19 236 I have tried to provide help files for as many modules as possible \, and I have annotated which modules have help files in the guides below. Unforunately not all modules have help files., f 87;
#X text 19 276 This toolkit is still in pre-alpha stage \, so it is not thoroughly tested \, is missing a great deal of documentation \, and may have fucntionality changes in future releases. That being said \, it IS functional and all modules should work barring any bugs, f 87;
#X text 19 332 The SATK relies on the TDH.LIB library \, ELSE library \, and CYCLONE library. It should be 100% plugdata compatible \, so it should be able to be used in the plugin form of plugdata., f 87;
#X obj 19 522 cnv 10 10 10 empty empty SATK\ Modules 0 6 0 18 #ffffff #373737 0;
#X text 19 541 Click on a box [pd satk.*] to open a new window showing all objects in that category., f 86;
#N canvas 0 22 450 300 satk.ac 0;
#X obj 9 9 cnv 15 500 40 empty empty SATK\ -\ ALGORITHMIC\ COMPOSITION 2 20 0 32 #b7b7b7 #373737 0;
#X obj 269 69 tdh.satk/satk.ac.euclidianRhythm;
#A saved 0 0 0 0;
#X text 269 258 satk.ac.euclidianRhythm;
#X obj 29 59 tdh.satk/satk.ac.eventCreation;
#A saved 0 0 0 0 0;
#X text 49 398 satk.ac.eventCreation;
#X restore 19 597 pd satk.ac;
#N canvas 0 22 450 300 satk.seq 0;
#X obj 9 9 cnv 15 500 40 empty empty SATK\ -\ EVENT\ SEQUENCING 2 20 0 32 #b7b7b7 #373737 0;
#X obj 9 59 tdh.satk/satk.seq.gesture;
#A saved 0 0 0 0 0 0 0 0 0 0 0 0 0 0 0 0 0 0 0 0 0;
#X obj 9 369 tdh.satk/satk.seq.row;
#A saved 0 0 0 0 0 0 0 0;
#X obj 9 529 tdh.satk/satk.seq.stepSequencer;
#A saved 0 120 0 16 0 0 100 0 0 0 0 0 0 0 0 0 0 0 0 0 0 0 0 0 0 0 0 0 0 0 0 0 0 0 0 0 0 0 0 0 0 0 0 0 0 0 0 0 0 0 0 0 0 0 0 0 0 0 0 0 0 0 0 0 0 0 0 0 0 0 0 0;
#X text 319 158 satk.seq.gesture;
#X text 219 418 satk.seq.row;
#X text 719 648 satk.seq.stepSequencer;
#X restore 369 597 pd satk.seq;
#N canvas 0 22 450 300 satk.ctrl 0;
#X obj 9 9 cnv 15 500 40 empty empty STAK\ -\ CONTROLLER\ MODULES 2 20 0 32 #b7b7b7 #373737 0;
#X obj 29 79 tdh.satk/satk.ctrl.button;
#A saved 0 0;
#X obj 209 79 tdh.satk/satk.ctrl.slider;
#A saved 0 0 100 0 0;
#X text 29 238 satk.ctrl.button;
#X text 189 238 satk.ctrl.slider;
#X restore 19 657 pd satk.ctrl;
#N canvas 0 22 450 300 satk.sigproc 0;
#X obj 9 9 cnv 15 500 40 empty empty SATK\ -\ SIGNAL\ PROCESSORS 2 20 0 32 #b7b7b7 #373737 0;
#X text 219 118 tdh.lib/tdh.sigproc.delay.ui~;
#X text 119 418 tdh.lib/tdh.sigproc.freeze.ui~;
#X text 319 608 tdh.lib/tdh.sigproc.granulate.ui~;
#X text 760 119 tdh.lib/tdh.sigproc.mmfilt.ui~;
#X text 759 328 tdh.lib/tdh.sigproc.waveRectifier.ui~;
#X text 324 271 tdh.lib/tdh.sigproc.multiTapDelay.ui~;
#X text 659 578 tdh.lib/tdh.sigproc.softClipDistortion.ui~;
#X obj 9 59 tdh.satk/satk.sigproc.delay~;
#A saved 0 0 0 0 0 0 0;
#X obj 9 219 tdh.satk/satk.sigproc.multiTapDelay~;
#A saved 0 0 0 0 0 0 0 0 0 0;
#X obj 9 379 tdh.satk/satk.sigproc.freeze~;
#A saved 0 0 0;
#X obj 9 539 tdh.satk/satk.sigproc.granulate~;
#A saved 0 0 0 0 0 0 0 0 0 0 0 -1 1 0 0;
#X obj 549 59 tdh.satk/satk.sigproc.mmfilt~;
#A saved 0 0 0 0 0;
#X obj 549 239 tdh.satk/satk.sigproc.waveREctifier~;
#A saved -1 0 0 0;
#X obj 549 549 tdh.satk/satk.sigproc.softClipDistortion~;
#A saved 0 0 0;
#X restore 369 657 pd satk.sigproc;
#N canvas 0 22 450 300 satk.math 0;
#N canvas 0 22 450 300 frame 0;
#X coords 0 0 1 1 781 519 2 0 0;
#X restore 9 571 pd frame;
#N canvas 0 22 450 300 frame 0;
#X coords 0 0 1 1 481 201 2 0 0;
#X restore 309 59 pd frame;
#N canvas 0 22 450 300 frame 0;
#X coords 0 0 1 1 291 201 2 0 0;
#X restore 9 59 pd frame;
#N canvas 0 22 450 300 frame 0;
#X coords 0 0 1 1 311 291 2 0 0;
#X restore 9 269 pd frame;
#N canvas 0 22 450 300 frame 0;
#X coords 0 0 1 1 461 291 2 0 0;
#X restore 329 269 pd frame;
#X obj 9 9 cnv 15 500 40 empty empty SATK\ -\ MATHEMATICS 2 20 0 32 #b7b7b7 #373737 0;
#X obj 19 69 cnv 10 10 10 empty empty Number\ Value 0 6 0 16 #ffffff #373737 0;
#X obj 19 99 tdh.satk/satk.math.float;
#A saved 0 0;
#X obj 319 69 cnv 10 10 10 empty empty Math\ Operators 0 6 0 16 #ffffff #373737 0;
#X obj 19 279 cnv 10 10 10 empty empty Pitch\ Conversion 0 6 0 16 #ffffff #373737 0;
#X obj 339 279 cnv 10 10 10 empty empty Scaling\ and\ Number\ Range 0 6 0 16 #ffffff #373737 0;
#X obj 19 579 cnv 10 10 10 empty empty Probability\ and\ Random 0 6 0 16 #ffffff #373737 0;
#X obj 319 89 tdh.satk/satk.math.plus;
#A saved 0 1;
#X obj 319 169 tdh.satk/satk.math.minus;
#A saved 0 1;
#X obj 559 89 tdh.satk/satk.math.multiply;
#A saved 0 1;
#X obj 559 169 tdh.satk/satk.math.divide;
#A saved 0 1;
#X obj 19 309 tdh.satk/satk.math.freq2midi;
#X obj 19 399 tdh.satk/satk.math.midi2freq;
#X obj 339 299 tdh.satk/satk.math.scale;
#A saved 0 0 0 0 0;
#X obj 339 469 tdh.satk/satk.math.valueClamp;
#A saved 0 0 0;
#X obj 19 599 tdh.satk/satk.math.probabilityTable;
#A saved 50 30 20 10 5 0 0 0 5 0;
#X obj 19 919 tdh.satk/satk.math.randomDistributions;
#A saved 0 0 0 10 0 0;
#X obj 459 599 tdh.satk/satk.math.random2choices;
#X text 129 125 satk.math.float;
#X text 389 108 satk.math.plus;
#X text 619 108 satk.math.multiply;
#X text 385 198 satk.math.minus;
#X text 629 188 satk.math.divide;
#X text 139 328 satk.math.freq2midi;
#X text 139 428 satk.math.midi2freq;
#X text 459 338 satk.math.scale;
#X text 559 498 satk.math.valueClamp;
#X text 229 738 satk.math.probabilityTable;
#X text 569 678 satk.math.random2choices;
#X text 229 988 satk.math.randomDistributions;
#X restore 19 717 pd satk.math;
#N canvas 0 22 450 300 satk.synth 0;
#X obj 9 9 cnv 15 500 40 empty empty TDH.LIB\ -\ SYNTHESIS 2 20 0 32 #b7b7b7 #373737 0;
#X text 229 178 tdh.lib/tdh.synth.1oscil.ui~;
#X text 179 498 tdh.lib/tdh.synth.beep.ui~;
#X text 619 128 tdh.lib/tdh.synth.LFOscil.ui~;
#X text 538 504 tdh.lib/tdh.synth.simpleSynth.ui~;
#X obj 879 169 switch~;
#X obj 879 129 tgl 25 0 empty empty empty 17 7 0 10 #e4e4e4 #4d4d4d #373737 0 1;
#X obj 879 99 else/canvas.active;
#X obj 9 69 tdh.satk/satk.synth.1oscil~;
#A saved 0 4 261.626 0 0 0 0 0;
#X obj 9 409 tdh.satk/satk.synth.beep~;
#A saved 440 0 500 0 25 0;
#X obj 409 69 tdh.satk/satk.synth.LFoscil~;
#A saved 0 0 1 0 0 0 0 0 0;
#X obj 419 429 tdh.satk/satk.synth.simpleSynth~;
#X connect 6 0 5 0;
#X connect 7 0 6 0;
#X restore 369 717 pd satk.synth;
#N canvas 0 22 450 300 satk.midi 0;
#X obj 9 9 cnv 15 500 40 empty empty SATK\ -\ MIDI 2 20 0 32 #b7b7b7 #373737 0;
#X obj 19 69 tdh.satk/satk.midi.makeNote;
#A saved 0 0 0 0;
#X text 139 100 satk.midi.makeNote;
#X restore 19 777 pd satk.midi;
#N canvas 0 22 450 300 satk.util 0;
#N canvas 0 22 450 300 frame 0;
#X coords 0 0 1 1 221 431 2 0 0;
#X restore 1049 69 pd frame;
#N canvas 0 22 450 300 frame 0;
#X coords 0 0 1 1 1261 371 2 0 0;
#X restore 9 1649 pd frame;
#N canvas 0 22 450 300 frame 0;
#X coords 0 0 1 1 261 701 2 0 0;
#X restore 1009 939 pd frame;
#N canvas 0 22 450 300 frame 0;
#X coords 0 0 1 1 621 419 2 0 0;
#X restore 649 511 pd frame;
#N canvas 0 22 450 300 frame 0;
#X coords 0 0 1 1 991 701 2 0 0;
#X restore 9 939 pd frame;
#N canvas 0 22 450 300 frame 0;
#X coords 0 0 1 1 621 419 2 0 0;
#X restore 9 511 pd frame;
#N canvas 0 22 450 300 frame 0;
#X coords 0 0 1 1 839 429 2 0 0;
#X restore 199 69 pd frame;
#N canvas 0 22 450 300 frame 0;
#X coords 0 0 1 1 171 431 2 0 0;
#X restore 9 69 pd frame;
#X obj 9 9 cnv 15 500 40 empty empty SATK\ -\ UTILITIES 2 20 0 32 #b7b7b7 #373737 0;
#X obj 369 549 tdh.satk/satk.util.2sigxfade~;
#X obj 719 549 tdh.satk/satk.util.ad~;
#A saved 0 0 0 0 0 0;
#X obj 1009 549 tdh.satk/satk.util.adsr~;
#A saved 0 0 0 0 0 0;
#X obj 499 709 tdh.satk/satk.util.amplifier~;
#X obj 209 109 tdh.satk/satk.util.audiofile~;
#X obj 39 118 tdh.satk/satk.util.audioIn~;
#A saved 1 1 0 0;
#X obj 39 308 tdh.satk/satk.util.audioOut~;
#A saved 0 1 0;
#X obj 19 550 tdh.satk/satk.util.channelStripMn~;
#X obj 199 549 tdh.satk/satk.util.channelStripSt~;
#X obj 1079 989 tdh.satk/satk.util.clock;
#A saved 0 0;
#X obj 1079 1229 tdh.satk/satk.util.clockMultDiv;
#A saved 4 0;
#X obj 719 1679 tdh.satk/satk.util.counter;
#A saved 0 0 1 0 0;
#X obj 719 739 tdh.satk/satk.util.curve;
#A saved -1 0 0 0 1 0;
#X obj 729 109 tdh.lib/tdh.util.audioFileSm.ui~;
#A saved 0 0 0 100 path 0 0 0;
#A saved 0 0 0 100 file 0 0 0;
#X obj 1009 739 tdh.satk/satk.util.curve~;
#A saved -1 0 0 0 1 0;
#X obj 849 1679 tdh.satk/satk.util.dataTable;
#A saved 0 0 0 0 0 0 0 0  1;
#X obj 39 1679 tdh.satk/satk.util.distBang2;
#X obj 179 1679 tdh.satk/satk.util.distFloat2;
#X obj 319 1679 tdh.satk/satk.util.float2bang;
#X obj 459 1679 tdh.satk/satk.util.msgDelay;
#X obj 729 309 tdh.satk/satk.util.recorder~;
#X obj 1059 202 tdh.satk/satk.util.remoteReceive;
#A saved  1;
#X obj 1059 402 tdh.satk/satk.util.remoteReceive~;
#A saved  1;
#X obj 1059 102 tdh.satk/satk.util.remoteSend;
#A saved  1;
#X obj 1059 302 tdh.satk/satk.util.remoteSend~;
#A saved  1;
#X obj 27 967 tdh.satk/satk.util.scope~;
#X obj 369 709 tdh.satk/satk.util.sigGate4~;
#A saved 0 0 0 0 0;
#X obj 417 967 tdh.satk/satk.util.signalMonitor~;
#X obj 599 1679 tdh.satk/satk.util.slewData;
#A saved 0 0;
#X obj 27 1307 tdh.satk/satk.util.spectrum~;
#X obj 637 1307 tdh.satk/satk.util.spectrumSm~;
#X text 39 272 satk.util.audioIn~;
#X text 39 462 satk.util.audioOut~;
#X text 209 414 satk.util.audioFile~;
#X text 729 266 satk.util.audioFileSm~;
#X text 729 466 satk.util.recorder~;
#X text 19 863 satk.util.channelStripMn~;
#X text 199 863 satk.util.channelStripSt~;
#X text 369 667 satk.util.2sigxfade~;
#X text 369 873 satk.util.sigGate4~;
#X text 499 873 satk.util.amplifier~;
#X text 719 703 satk.util.ad~;
#X text 1009 703 satk.util.adsr~;
#X text 719 893 satk.util.curve;
#X text 1009 893 satk.util.curve~;
#X obj 19 79 cnv 15 9 9 empty empty Audio\ Input\ &\ Output 0 6 0 16 #ffffff #373737 0;
#X obj 209 79 cnv 15 9 9 empty empty Audio\ File\ Handling 0 6 0 16 #ffffff #373737 0;
#X obj 19 519 cnv 15 9 9 empty empty Audio\ Signal\ Handling 0 6 0 16 #ffffff #373737 0;
#X obj 17 947 cnv 15 9 9 empty empty Audio\ Signal\ Monitoring\ and\ Visualizing 0 6 0 16 #ffffff #373737 0;
#X text 27 1276 satk.util.scope~;
#X text 417 1256 satk.util.signalMonitor~;
#X text 27 1616 satk.util.spectrum~;
#X text 647 1526 satk.util.spectrumSm~;
#X obj 659 519 cnv 15 9 9 empty empty Envelopes\ and\ Ramps 0 6 0 16 #ffffff #373737 0;
#X text 1059 175 satk.util.remoteSend;
#X text 1059 273 satk.util.remoteReceive;
#X text 1059 373 satk.util.remoteSend~;
#X text 1059 473 satk.util.remoteReceive~;
#X obj 1059 79 cnv 15 9 9 empty empty Remote\ Send\ and\ Receive 0 6 0 16 #ffffff #373737 0;
#X obj 1019 949 cnv 15 9 9 empty empty Timing 0 6 0 16 #ffffff #373737 0;
#X text 1089 1148 satk.util.clock;
#X text 1069 1558 satk.util.clockMultDiv;
#X text 39 1758 satk.util.distBang2;
#X text 179 1758 satk.util.distFloat2;
#X text 319 1758 satk.util.float2bang;
#X text 459 1758 satk.util.msgDelay;
#X text 599 1758 satk.util.slewData;
#X text 719 1828 satk.util.counter;
#X text 849 1988 satk.util.dataTable;
#X obj 17 1657 cnv 15 9 9 empty empty Data\ Handling 0 6 0 16 #ffffff #373737 0;
#X restore 369 777 pd satk.util;
#N canvas 0 22 450 300 usingTheSATK 1;
#X obj 29 69 cnv 15 151 81 empty empty empty 20 12 0 14 #b7b7b7 #373737 0;
#X obj 29 29 cnv 10 10 10 empty empty General\ Operation\ of\ SATK 0 6 0 18 #ffffff #373737 0;
#X obj 179 99 cnv 15 111 11 empty empty empty 20 12 0 14 #b7b7b7 #373737 0;
#X obj 39 89 cnv 10 10 10 empty empty Controlling/Data- 0 6 0 14 #b7b7b7 #373737 0;
#X obj 39 109 cnv 10 10 10 empty empty Generating\ Modules 0 6 0 14 #b7b7b7 #373737 0;
#X obj 289 69 cnv 15 151 81 empty empty empty 20 12 0 14 #b7b7b7 #373737 0;
#X obj 305 94 cnv 10 10 10 empty empty Sound-Generating 0 6 0 14 #b7b7b7 #373737 0;
#X obj 305 114 cnv 10 10 10 empty empty Modules 0 6 0 14 #b7b7b7 #373737 0;
#X obj 349 149 cnv 15 11 71 empty empty empty 20 12 0 14 #b7b7b7 #373737 0;
#X obj 289 219 cnv 15 151 81 empty empty empty 20 12 0 14 #b7b7b7 #373737 0;
#X obj 311 241 cnv 10 10 10 empty empty Signal\ Processing 0 6 0 14 #b7b7b7 #373737 0;
#X obj 311 261 cnv 10 10 10 empty empty Modules 0 6 0 14 #b7b7b7 #373737 0;
#X obj 349 299 cnv 15 11 71 empty empty empty 20 12 0 14 #b7b7b7 #373737 0;
#X obj 289 369 cnv 15 151 81 empty empty empty 20 12 0 14 #b7b7b7 #373737 0;
#X obj 344 392 cnv 10 10 10 empty empty Audio 0 6 0 14 #b7b7b7 #373737 0;
#X obj 344 412 cnv 10 10 10 empty empty Out 0 6 0 14 #b7b7b7 #373737 0;
#X obj 29 539 cnv 10 10 10 empty empty General\ Conventions 0 6 0 18 #ffffff #373737 0;
#X text 49 787 Modules that end with a tilde (~) handle signal rate (i.e. audio) data \, while all other modules handle control rate data.;
#X obj 499 909 tdh.satk/satk.sigproc.delay~;
#A saved 0 0 0 0 0 0 0;
#X text 49 937 Data/signal input goes into the top of modules \, output signals and data come from the bottom of modules. If you are using plugdata \, the inlets and outlets will be color-coded!;
#X text 489 863 Signal input;
#X text 499 883 |;
#X text 626 882 |;
#X text 616 862 Data input;
#X text 499 1057 |;
#X text 489 1073 Signal Output;
#X text 49 1167 Many objects feature an "Embed" option button \, which \, when enabled \, will save the parameters of your controls when you save the patch.;
#X obj 499 1139 tdh.satk/satk.math.randomDistributions;
#A saved 0 0 0 10 0 0;
#X text 716 1234 Embed parameters;
#X text 702 1235 --;
#X text 49 557 Since the SATK is an external library \, you need to tell Pd/plugdata that you are using objects from the library. To do this you need to either:;
#X text 69 597 •;
#X text 69 657 •;
#X text 89 597 Begin typing each object name with the library prefix of "tdh.satk/" \, so to instantiate ac.euclidianRhythm you need to type [tdh.satk/satk.ac.euclidianRhythm], f 53;
#X text 89 657 Use the [declare] object \, with "-path tdh.satk". Now you no longer need to type "tdh.satk/" \, just the object name [satk.ac.eudclidianRhythm]., f 53;
#X obj 89 719 declare -path tdh.satk;
#X text 29 558 •;
#X text 29 788 •;
#X text 29 938 •;
#X restore 19 469 pd usingTheSATK;
