#N canvas 29 23 1651 1005 10;
#X obj 634 266 satk.synth.3oscil~;
#X obj 466 598 satk.util.channelstripMono~;
#X obj 453 889 satk.util.audioout~;
#X obj 627 -27 satk.seq.gesture;
#X connect 0 0 1 0;
#X connect 1 0 2 0;
#X connect 1 1 2 1;
#X connect 3 0 0 2;
#X connect 3 1 0 3;
#X connect 3 2 0 2;
#X connect 3 3 0 3;
